<svg width="81" height="84" viewBox="0 0 81 84" fill="none" xmlns="http://www.w3.org/2000/svg">
<g clip-path="url(#clip0)">
<path d="M1.14014 63H9.64014H18.1401" stroke="#3C48EE" stroke-width="4" stroke-miterlimit="10"/>
<path d="M21.1401 16V2H9.14014V63" stroke="#3C48EE" stroke-width="4" stroke-miterlimit="10"/>
<path d="M79.1401 63H70.6401H62.1401" stroke="#3C48EE" stroke-width="4" stroke-miterlimit="10"/>
<path d="M71.1401 24V63" stroke="#3C48EE" stroke-width="4" stroke-miterlimit="10"/>
<path d="M79.1401 30L40.1401 3L1.14014 30" stroke="#3C48EE" stroke-width="4" stroke-miterlimit="10"/>
<path d="M56.7498 66.22C56.7498 74.84 49.7598 81.83 41.1398 81.83C32.5198 81.83 25.5298 74.84 25.5298 66.22C25.5298 56.78 41.1398 37.28 41.1398 37.28C41.1398 37.28 56.7498 57.47 56.7498 66.22Z" stroke="#3C48EE" stroke-width="4" stroke-miterlimit="10"/>
<path d="M33.7202 69.0001C34.9102 71.9301 37.7802 74.0001 41.1402 74.0001C44.5202 74.0001 47.4102 71.9001 48.5802 68.9301" stroke="#3C48EE" stroke-width="4" stroke-miterlimit="10"/>
<path d="M40.1401 29.5C43.1777 29.5 45.6401 27.0376 45.6401 24C45.6401 20.9624 43.1777 18.5 40.1401 18.5C37.1026 18.5 34.6401 20.9624 34.6401 24C34.6401 27.0376 37.1026 29.5 40.1401 29.5Z" stroke="#3C48EE" stroke-width="4" stroke-miterlimit="10"/>
</g>
<defs>
<clipPath id="clip0">
<rect width="80.28" height="83.83" fill="white"/>
</clipPath>
</defs>
</svg>
