<svg width="85" height="85" viewBox="0 0 85 85" fill="none" xmlns="http://www.w3.org/2000/svg">
<g clip-path="url(#clip0)">
<path d="M0.0400391 34.36C5.29004 34.36 5.29004 38.52 10.54 38.52C15.79 38.52 15.79 34.36 21.04 34.36C26.29 34.36 26.29 38.52 31.54 38.52C36.79 38.52 36.79 34.36 42.04 34.36C47.29 34.36 47.29 38.52 52.54 38.52C57.79 38.52 57.79 34.36 63.04 34.36C68.29 34.36 68.29 38.52 73.55 38.52C78.8 38.52 78.8 34.36 84.06 34.36" stroke="#3E3EF7" stroke-width="4" stroke-miterlimit="10"/>
<path d="M0.0400391 56.3199C5.29004 56.3199 5.29004 60.4799 10.54 60.4799C15.79 60.4799 15.79 56.3199 21.04 56.3199C26.29 56.3199 26.29 60.4799 31.54 60.4799C36.79 60.4799 36.79 56.3199 42.04 56.3199C47.29 56.3199 47.29 60.4799 52.54 60.4799C57.79 60.4799 57.79 56.3199 63.04 56.3199C68.29 56.3199 68.29 60.4799 73.55 60.4799C78.8 60.4799 78.8 56.3199 84.06 56.3199" stroke="#3E3EF7" stroke-width="4" stroke-miterlimit="10"/>
<path d="M0.0400391 78.3199C5.29004 78.3199 5.29004 82.4799 10.54 82.4799C15.79 82.4799 15.79 78.3199 21.04 78.3199C26.29 78.3199 26.29 82.4799 31.54 82.4799C36.79 82.4799 36.79 78.3199 42.04 78.3199C47.29 78.3199 47.29 82.4799 52.54 82.4799C57.79 82.4799 57.79 78.3199 63.04 78.3199C68.29 78.3199 68.29 82.4799 73.55 82.4799C78.8 82.4799 78.8 78.3199 84.06 78.3199" stroke="#3E3EF7" stroke-width="4" stroke-miterlimit="10"/>
<path d="M10.1001 25.98V4.37" stroke="#3C48EE" stroke-width="4" stroke-miterlimit="10"/>
<path d="M18.6702 10.66L9.98016 2L1.41016 10.52" stroke="#3C48EE" stroke-width="4" stroke-miterlimit="10" stroke-linejoin="round"/>
<path d="M74.1001 25.98V4.37" stroke="#3C48EE" stroke-width="4" stroke-miterlimit="10"/>
<path d="M82.6702 10.66L73.9802 2L65.4102 10.52" stroke="#3C48EE" stroke-width="4" stroke-miterlimit="10" stroke-linejoin="round"/>
<path d="M42.1001 25.98V4.37" stroke="#3C48EE" stroke-width="4" stroke-miterlimit="10"/>
<path d="M50.6702 10.66L41.9802 2L33.4102 10.52" stroke="#3C48EE" stroke-width="4" stroke-miterlimit="10" stroke-linejoin="round"/>
</g>
<defs>
<clipPath id="clip0">
<rect width="84.09" height="84.48" fill="white"/>
</clipPath>
</defs>
</svg>
