<svg width="82" height="96" viewBox="0 0 82 96" fill="none" xmlns="http://www.w3.org/2000/svg">
<g clip-path="url(#clip0)">
<path d="M32.9598 76.32H56.5798C61.4198 76.32 65.2698 72.26 65.0198 67.43L62.6198 21.86C62.3798 17.37 58.6798 13.86 54.1798 13.86H35.3598C30.8698 13.86 27.1598 17.38 26.9198 21.86L24.5198 67.43C24.2698 72.27 28.1198 76.32 32.9598 76.32Z" stroke="#3C48EE" stroke-width="4" stroke-miterlimit="10"/>
<path d="M26.3199 31.26C21.6499 30.31 18.1399 26.18 18.1399 21.24H26.9799" stroke="#3C48EE" stroke-width="4" stroke-miterlimit="10"/>
<path d="M30.6299 7.25H58.2499" stroke="#3C48EE" stroke-width="4" stroke-miterlimit="10" stroke-linejoin="round"/>
<path d="M23.6299 83.25H66.2499" stroke="#3C48EE" stroke-width="4" stroke-miterlimit="10"/>
<path d="M53.9198 69.09H54.6998C56.4198 69.09 57.8098 67.7 57.8098 65.98V30.51C57.8098 28.58 56.2398 27.01 54.3098 27.01C52.3798 27.01 50.8098 28.58 50.8098 30.51V65.98C50.8098 67.7 52.1998 69.09 53.9198 69.09Z" stroke="#3C48EE" stroke-width="4" stroke-miterlimit="10"/>
<path d="M63.51 23.0601H67.98C68.16 23.0601 68.35 23.0701 68.53 23.0801C73.7 23.4301 76.89 28.9501 74.9 33.7401L64.56 58.7701" stroke="#3C48EE" stroke-width="4" stroke-miterlimit="10"/>
<path d="M79.6699 7.21001C79.6699 7.27001 79.6599 7.34001 79.6199 7.39001L79.6099 7.40001C79.5799 7.44001 79.5399 7.46001 79.4999 7.48001L79.0299 7.69001C77.3899 8.42001 75.9299 9.52001 74.7299 10.89C73.5699 12.21 72.6499 13.79 72.0499 15.54C71.9899 15.72 71.8599 15.87 71.6899 15.91H71.6699C71.4999 15.87 71.3699 15.72 71.3099 15.54C70.7099 13.79 69.7899 12.21 68.6299 10.89C67.4299 9.52001 65.9699 8.42001 64.3299 7.69001L63.8599 7.48001C63.8199 7.46001 63.7799 7.44001 63.7499 7.40001L63.7399 7.39001C63.6999 7.33001 63.6899 7.27001 63.6899 7.21001C63.6899 7.15001 63.6999 7.08001 63.7399 7.03001L63.7499 7.02001C63.7799 6.98001 63.8199 6.96001 63.8599 6.94001L64.3299 6.73001C65.9699 6.00001 67.4299 4.90001 68.6299 3.53001C69.7899 2.21001 70.7099 0.63001 71.3099 -1.11999C71.3699 -1.29999 71.4999 -1.44999 71.6699 -1.48999H71.6899C71.8599 -1.44999 71.9899 -1.29999 72.0499 -1.11999C72.6499 0.63001 73.5699 2.21001 74.7299 3.53001C75.9299 4.90001 77.3899 6.00001 79.0299 6.73001L79.4999 6.94001C79.5399 6.96001 79.5799 6.99001 79.6099 7.02001L79.6199 7.03001C79.6599 7.08001 79.6699 7.15001 79.6699 7.21001Z" stroke="#3C48EE" stroke-width="3.3411" stroke-miterlimit="10"/>
<path d="M17.6699 57.21C17.6699 57.27 17.6599 57.34 17.6199 57.39L17.6099 57.4C17.5799 57.44 17.5399 57.46 17.4999 57.48L17.0299 57.69C15.3899 58.42 13.9299 59.52 12.7299 60.89C11.5699 62.21 10.6499 63.79 10.0499 65.54C9.98994 65.72 9.85994 65.87 9.68994 65.91H9.66994C9.49994 65.87 9.36994 65.72 9.30994 65.54C8.70994 63.79 7.78994 62.21 6.62994 60.89C5.42994 59.52 3.96994 58.42 2.32994 57.69L1.85994 57.48C1.81994 57.46 1.77994 57.44 1.74994 57.4L1.73994 57.39C1.69994 57.33 1.68994 57.27 1.68994 57.21C1.68994 57.15 1.69994 57.08 1.73994 57.03L1.74994 57.02C1.77994 56.98 1.81994 56.96 1.85994 56.94L2.32994 56.73C3.96994 56 5.42994 54.9 6.62994 53.53C7.78994 52.21 8.70994 50.63 9.30994 48.88C9.36994 48.7 9.49994 48.55 9.66994 48.51H9.68994C9.85994 48.55 9.98994 48.7 10.0499 48.88C10.6499 50.63 11.5699 52.21 12.7299 53.53C13.9299 54.9 15.3899 56 17.0299 56.73L17.4999 56.94C17.5399 56.96 17.5799 56.99 17.6099 57.02L17.6199 57.03C17.6599 57.08 17.6699 57.15 17.6699 57.21Z" stroke="#3C48EE" stroke-width="3.3411" stroke-miterlimit="10"/>
<path d="M30 -3.53C30 -3.49 29.99 -3.45 29.97 -3.42L29.96 -3.41C29.94 -3.39 29.92 -3.37 29.9 -3.36L29.61 -3.23C28.61 -2.77 27.73 -2.08 27 -1.22C26.29 -0.39 25.74 0.6 25.37 1.7C25.33 1.81 25.25 1.9 25.15 1.93H25.14C25.04 1.9 24.96 1.81 24.92 1.7C24.55 0.6 24 -0.39 23.29 -1.22C22.56 -2.08 21.68 -2.77 20.68 -3.23L20.39 -3.36C20.37 -3.37 20.34 -3.39 20.33 -3.41C20.33 -3.41 20.33 -3.42 20.32 -3.42C20.3 -3.45 20.29 -3.5 20.29 -3.53C20.29 -3.57 20.3 -3.61 20.32 -3.65L20.33 -3.66C20.35 -3.68 20.37 -3.7 20.39 -3.71L20.68 -3.84C21.68 -4.3 22.56 -4.99 23.29 -5.85C24 -6.68 24.55 -7.67 24.92 -8.77C24.96 -8.88 25.04 -8.97 25.14 -9H25.15C25.25 -8.97 25.33 -8.88 25.37 -8.77C25.74 -7.67 26.29 -6.68 27 -5.85C27.73 -4.99 28.61 -4.3 29.61 -3.84L29.9 -3.71C29.92 -3.7 29.95 -3.68 29.96 -3.66C29.96 -3.66 29.96 -3.65 29.97 -3.65C29.99 -3.61 30 -3.57 30 -3.53Z" stroke="#3C48EE" stroke-width="2" stroke-miterlimit="10"/>
</g>
<defs>
<clipPath id="clip0">
<rect width="81.34" height="95.25" fill="white"/>
</clipPath>
</defs>
</svg>
