<svg width="118" height="80" viewBox="0 0 118 80" fill="none" xmlns="http://www.w3.org/2000/svg">
<g clip-path="url(#clip0)">
<path d="M115.29 49.19C115.29 59.5 106.93 67.86 96.6202 67.86C86.3102 67.86 77.9502 59.5 77.9502 49.19C77.9502 37.91 96.6202 14.59 96.6202 14.59C96.6202 14.59 115.29 38.73 115.29 49.19Z" stroke="#3C48EE" stroke-width="4" stroke-miterlimit="10"/>
<path d="M87.75 52.52C89.17 56.03 92.61 58.5 96.62 58.5C100.66 58.5 104.12 55.99 105.52 52.44" stroke="#3C48EE" stroke-width="4" stroke-miterlimit="10"/>
<path d="M64.4199 0V79.56" stroke="#3C48EE" stroke-width="4" stroke-miterlimit="10" stroke-linejoin="round"/>
<path d="M14.4998 36.78C16.7973 36.78 18.6598 34.9175 18.6598 32.62C18.6598 30.3225 16.7973 28.46 14.4998 28.46C12.2023 28.46 10.3398 30.3225 10.3398 32.62C10.3398 34.9175 12.2023 36.78 14.4998 36.78Z" stroke="#3C48EE" stroke-width="4" stroke-miterlimit="10" stroke-linecap="round"/>
<path d="M41.9598 35.95C44.2573 35.95 46.1198 34.0875 46.1198 31.79C46.1198 29.4925 44.2573 27.63 41.9598 27.63C39.6623 27.63 37.7998 29.4925 37.7998 31.79C37.7998 34.0875 39.6623 35.95 41.9598 35.95Z" stroke="#3C48EE" stroke-width="4" stroke-miterlimit="10" stroke-linecap="round"/>
<path d="M31.9701 65.9C34.2676 65.9 36.1301 64.0375 36.1301 61.74C36.1301 59.4425 34.2676 57.58 31.9701 57.58C29.6726 57.58 27.8101 59.4425 27.8101 61.74C27.8101 64.0375 29.6726 65.9 31.9701 65.9Z" stroke="#3C48EE" stroke-width="4" stroke-miterlimit="10" stroke-linecap="round"/>
<path d="M21.1602 15.98C22.3402 15.98 27.5902 20.97 32.8102 20.97C38.6502 20.97 38.6302 15.98 44.4602 15.98" stroke="#3C48EE" stroke-width="4" stroke-miterlimit="10" stroke-linecap="round"/>
<path d="M18.47 65.09C17.64 64.26 17.45 57.01 13.76 53.32C9.63 49.19 6.12 52.73 2 48.61" stroke="#3C48EE" stroke-width="4" stroke-miterlimit="10" stroke-linecap="round"/>
<path d="M48.4302 60.1C47.6002 59.27 47.4102 52.02 43.7202 48.33C39.5902 44.2 36.0702 47.74 31.9502 43.62" stroke="#3C48EE" stroke-width="4" stroke-miterlimit="10" stroke-linecap="round"/>
</g>
<defs>
<clipPath id="clip0">
<rect width="117.29" height="79.56" fill="white"/>
</clipPath>
</defs>
</svg>
