<svg width="85" height="80" viewBox="0 0 85 80" fill="none" xmlns="http://www.w3.org/2000/svg">
<path d="M0 23.6128C5.25 23.6128 5.25 27.7134 10.5 27.7134C15.75 27.7134 15.75 23.6128 21 23.6128C26.25 23.6128 26.25 27.7134 31.5 27.7134C36.75 27.7134 36.75 23.6128 42 23.6128C47.25 23.6128 47.25 27.7134 52.5 27.7134C57.75 27.7134 57.75 23.6128 63 23.6128C68.25 23.6128 68.25 27.7134 73.51 27.7134C78.76 27.7134 78.76 23.6128 84.02 23.6128" stroke="#3E3EF7" stroke-width="4" stroke-miterlimit="10"/>
<path d="M31.4902 50.3455C36.7402 50.3455 36.7402 46.2449 41.9902 46.2449C47.2402 46.2449 47.2402 50.3455 52.4902 50.3455C57.7402 50.3455 57.7402 46.2449 62.9902 46.2449C68.2402 46.2449 68.2402 50.3455 73.5002 50.3455C78.7502 50.3455 78.7502 46.2449 84.0103 46.2449" stroke="#3E3EF7" stroke-width="4" stroke-miterlimit="10"/>
<path d="M0.490234 75.9744C5.74024 75.9744 5.74024 71.8738 10.9902 71.8738C16.2402 71.8738 16.2402 75.9744 21.4902 75.9744C26.7402 75.9744 26.7402 71.8738 31.9902 71.8738C37.2402 71.8738 37.2402 75.9744 42.5002 75.9744C47.7602 75.9744 47.7502 71.8738 53.0002 71.8738" stroke="#3E3EF7" stroke-width="4" stroke-miterlimit="10"/>
<path d="M48.1099 6.39201C48.1099 6.43144 48.0999 6.47087 48.0799 6.50045L48.0699 6.5103C48.0499 6.53002 48.0299 6.54973 48.0099 6.55959L47.7199 6.68774C46.7199 7.14118 45.8399 7.82134 45.1099 8.66908C44.3999 9.48725 43.8499 10.4631 43.4799 11.5474C43.4399 11.6559 43.3599 11.7446 43.2599 11.7742H43.2499C43.1499 11.7446 43.0699 11.6559 43.0299 11.5474C42.6599 10.4631 42.1099 9.48725 41.3999 8.66908C40.6699 7.82134 39.7899 7.14118 38.7899 6.68774L38.4999 6.55959C38.4799 6.54973 38.4499 6.53002 38.4399 6.5103C38.4399 6.5103 38.4399 6.50045 38.4299 6.50045C38.4099 6.47087 38.3999 6.42159 38.3999 6.39201C38.3999 6.35258 38.4099 6.31315 38.4299 6.27372L38.4399 6.26387C38.4599 6.24415 38.4799 6.22444 38.4999 6.21458L38.7899 6.08643C39.7899 5.63299 40.6699 4.95283 41.3999 4.10509C42.1099 3.28692 42.6599 2.31104 43.0299 1.22672C43.0699 1.11829 43.1499 1.02957 43.2499 1H43.2599C43.3599 1.02957 43.4399 1.11829 43.4799 1.22672C43.8499 2.31104 44.3999 3.28692 45.1099 4.10509C45.8399 4.95283 46.7199 5.63299 47.7199 6.08643L48.0099 6.21458C48.0299 6.22444 48.0599 6.24415 48.0699 6.26387C48.0699 6.26387 48.0699 6.27372 48.0799 6.27372C48.0999 6.31315 48.1099 6.35258 48.1099 6.39201Z" stroke="#3E3EF7" stroke-width="2" stroke-miterlimit="10"/>
<path d="M23.6802 49.9019C23.6902 49.9709 23.6702 50.0399 23.6202 50.0991C23.6102 50.1089 23.6102 50.1089 23.6102 50.1188C23.5802 50.1582 23.5302 50.1878 23.4802 50.2075L22.9202 50.4441C20.9702 51.2425 19.2402 52.4352 17.8102 53.9237C16.4302 55.3629 15.3402 57.078 14.6302 58.9805C14.5602 59.1776 14.4002 59.3353 14.2002 59.3748C14.2002 59.3748 14.2002 59.3748 14.1902 59.3748H14.1702H14.1602C13.9602 59.3353 13.8002 59.1678 13.7302 58.9805C13.0202 57.078 11.9302 55.3629 10.5502 53.9237C9.12024 52.4352 7.39024 51.2425 5.44023 50.4441L4.88023 50.2075C4.83023 50.1878 4.79023 50.1582 4.75023 50.1188C4.75023 50.1089 4.74023 50.1089 4.74023 50.0991C4.69023 50.0399 4.67023 49.9709 4.68023 49.9019C4.67023 49.8329 4.69023 49.7639 4.74023 49.7048C4.75023 49.6949 4.75023 49.6949 4.75023 49.6851C4.78023 49.6456 4.83023 49.6161 4.88023 49.5964L5.44023 49.3696C7.39024 48.5712 9.12024 47.3785 10.5502 45.89C11.9302 44.4509 13.0202 42.7357 13.7302 40.8333C13.8002 40.6361 13.9602 40.4784 14.1602 40.439C14.1602 40.439 14.1602 40.439 14.1702 40.439H14.1902H14.2002C14.4002 40.4784 14.5602 40.646 14.6302 40.8333C15.3402 42.7357 16.4302 44.4509 17.8102 45.89C19.2402 47.3785 20.9702 48.5712 22.9202 49.3696L23.4802 49.5964C23.5302 49.6161 23.5702 49.6456 23.6102 49.6851C23.6102 49.6949 23.6202 49.6949 23.6202 49.7048C23.6702 49.7639 23.6902 49.8329 23.6802 49.9019Z" stroke="#3E3EF7" stroke-width="3" stroke-miterlimit="10"/>
<path d="M79.6802 68.6309C79.6902 68.6999 79.6702 68.7689 79.6202 68.8281C79.6102 68.8379 79.6102 68.8379 79.6102 68.8478C79.5802 68.8872 79.5302 68.9168 79.4802 68.9365L78.9202 69.1731C76.9702 69.9715 75.2402 71.1643 73.8102 72.6527C72.4302 74.0919 71.3402 75.807 70.6302 77.7095C70.5602 77.9066 70.4002 78.0643 70.2002 78.1038C70.2002 78.1038 70.2002 78.1038 70.1902 78.1038H70.1702H70.1602C69.9602 78.0643 69.8002 77.8968 69.7302 77.7095C69.0202 75.807 67.9302 74.0919 66.5502 72.6527C65.1202 71.1643 63.3902 69.9715 61.4402 69.1731L60.8802 68.9365C60.8302 68.9168 60.7902 68.8872 60.7502 68.8478C60.7502 68.8379 60.7402 68.8379 60.7402 68.8281C60.6902 68.7689 60.6702 68.6999 60.6802 68.6309C60.6702 68.5619 60.6902 68.4929 60.7402 68.4338C60.7502 68.4239 60.7502 68.4239 60.7502 68.4141C60.7802 68.3746 60.8302 68.3451 60.8802 68.3254L61.4402 68.0986C63.3902 67.3002 65.1202 66.1075 66.5502 64.619C67.9302 63.1799 69.0202 61.4647 69.7302 59.5623C69.8002 59.3651 69.9602 59.2074 70.1602 59.168C70.1602 59.168 70.1602 59.168 70.1702 59.168H70.1902H70.2002C70.4002 59.2074 70.5602 59.375 70.6302 59.5623C71.3402 61.4647 72.4302 63.1799 73.8102 64.619C75.2402 66.1075 76.9702 67.3002 78.9202 68.0986L79.4802 68.3254C79.5302 68.3451 79.5702 68.3746 79.6102 68.4141C79.6102 68.4239 79.6202 68.4239 79.6202 68.4338C79.6702 68.4929 79.6902 68.5619 79.6802 68.6309Z" stroke="#3E3EF7" stroke-width="3" stroke-miterlimit="10"/>
</svg>
