<svg width="74" height="81" viewBox="0 0 74 81" fill="none" xmlns="http://www.w3.org/2000/svg">
<path d="M28.3399 12.11C30.3558 12.11 31.9899 10.4266 31.9899 8.34997C31.9899 6.27338 30.3558 4.58997 28.3399 4.58997C26.3241 4.58997 24.6899 6.27338 24.6899 8.34997C24.6899 10.4266 26.3241 12.11 28.3399 12.11Z" stroke="#3E3EF7" stroke-width="4" stroke-miterlimit="10"/>
<path d="M32.1599 8.48999H55.2399" stroke="#3E3EF7" stroke-width="4" stroke-miterlimit="10"/>
<path d="M2.56006 8.48999H24.8401" stroke="#3E3EF7" stroke-width="4" stroke-miterlimit="10"/>
<path d="M28.1001 12.01V24.74" stroke="#3E3EF7" stroke-width="4" stroke-miterlimit="10"/>
<path d="M33.3001 57.78H23.3001C21.8901 57.78 20.6901 56.73 20.5201 55.33L16.2601 37.4C16.1601 36.57 16.8001 35.83 17.6401 35.83H38.9701C39.8101 35.83 40.4601 36.56 40.3501 37.4L36.0901 55.33C35.9101 56.73 34.7201 57.78 33.3001 57.78Z" stroke="#3E3EF7" stroke-width="4" stroke-miterlimit="10"/>
<path d="M39.12 35.65C39.12 29.68 34.28 24.84 28.31 24.84C22.34 24.84 17.5 29.68 17.5 35.65" stroke="#3E3EF7" stroke-width="4" stroke-miterlimit="10"/>
<path d="M55.78 65.17H2V78.34H55.78V65.17Z" stroke="#3E3EF7" stroke-width="4" stroke-miterlimit="10"/>
<path d="M2 0V67.71" stroke="#3E3EF7" stroke-width="4" stroke-miterlimit="10"/>
<path d="M55.78 0V67.71" stroke="#3E3EF7" stroke-width="4" stroke-miterlimit="10"/>
<path d="M56.51 8.73999H60.15C62.53 8.73999 64.46 10.67 64.46 13.05V21.69C64.46 22 64.71 22.25 65.02 22.25H73.41" stroke="#3E3EF7" stroke-width="4" stroke-miterlimit="10"/>
</svg>
