<svg width="101" height="90" viewBox="0 0 101 90" fill="none" xmlns="http://www.w3.org/2000/svg">
<path d="M98.356 85.7003C96.046 85.7003 93.736 85.7003 91.246 85.7003C91.246 85.1403 91.246 84.7203 91.246 84.2903C91.246 75.0403 91.266 65.7903 91.236 56.5403C91.226 51.8803 88.246 48.1803 83.706 47.1403C83.106 47.0003 82.966 46.7703 82.976 46.2103C83.006 43.8603 82.986 41.5203 82.986 39.1703C82.986 37.5403 82.626 37.1903 80.966 37.1803C79.336 37.1803 77.696 37.1803 76.026 37.1803C76.026 33.4803 76.026 29.9203 76.026 26.2303C78.516 26.2303 80.956 26.2403 83.396 26.2203C83.926 26.2203 84.476 26.2003 84.986 26.0603C87.186 25.4703 88.526 23.4403 88.266 21.1803C88.006 18.9303 86.186 17.2503 83.826 17.1903C81.586 17.1403 79.336 17.1803 77.096 17.1803C76.746 17.1803 76.396 17.1503 75.986 17.1203C75.986 13.9903 75.996 10.9803 75.986 7.97033C75.986 6.56033 75.526 6.10033 74.126 6.10033C64.246 6.10033 54.356 6.10033 44.476 6.10033C42.896 6.10033 42.466 6.53033 42.466 8.14033C42.456 9.71033 42.466 11.2703 42.466 12.8903C36.356 12.8903 30.346 12.8903 24.246 12.8903C24.246 12.1003 24.286 11.3603 24.236 10.6403C24.176 9.84033 24.366 9.34033 25.156 8.91033C27.106 7.84032 27.856 5.39033 27.016 3.32033C26.206 1.32033 24.066 0.160326 21.966 0.590326C20.046 0.980326 18.716 2.36033 18.356 4.30033C17.996 6.08033 18.906 7.97033 20.566 9.01033C20.876 9.21033 21.326 9.49033 21.356 9.77033C21.446 10.7903 21.396 11.8303 21.396 12.9603C20.886 12.9603 20.496 12.9603 20.096 12.9603C17.016 12.9703 15.166 14.8203 15.156 17.9003C15.146 20.4803 15.156 23.0603 15.156 25.6403C15.156 26.6703 15.156 27.7003 15.156 28.7703C14.836 28.8103 14.606 28.8703 14.386 28.8703C13.226 28.8803 12.056 28.8703 10.786 28.8703C10.786 27.9703 10.796 27.1803 10.786 26.3803C10.756 24.6503 9.57604 23.3703 7.86604 23.2803C6.86604 23.2303 5.85604 23.2303 4.85604 23.2703C3.12604 23.3503 1.91604 24.6003 1.91604 26.3303C1.90604 36.0803 1.90604 45.8303 1.91604 55.5803C1.91604 57.3203 3.10604 58.5603 4.84604 58.6603C5.84604 58.7203 6.85604 58.7203 7.85604 58.6603C9.56604 58.5603 10.746 57.2803 10.786 55.5603C10.796 55.1103 10.786 54.6503 10.786 54.2003C12.356 54.2003 13.776 54.2003 15.216 54.2003C15.216 64.7003 15.216 75.1303 15.216 85.6703C14.776 85.6703 14.416 85.6703 14.056 85.6703C10.436 85.6703 6.81604 85.6703 3.19604 85.6703C2.72604 85.6703 2.25604 85.6503 1.78604 85.6903C1.00604 85.7503 0.566043 86.1903 0.506043 86.9803C0.446043 87.7703 0.876043 88.2503 1.60604 88.4403C1.92604 88.5203 2.27604 88.4903 2.60604 88.4903C7.56604 88.4903 12.526 88.4903 17.486 88.4903C44.426 88.4903 71.366 88.4903 98.306 88.4903C99.656 88.4903 100.296 88.0203 100.276 87.0403C100.266 86.1203 99.676 85.7003 98.356 85.7003ZM7.90604 55.8303C6.89604 55.8303 5.87604 55.8303 4.78604 55.8303C4.78604 45.9503 4.78604 36.0903 4.78604 26.1303C5.85604 26.1303 6.84604 26.1303 7.90604 26.1303C7.90604 36.0403 7.90604 45.8903 7.90604 55.8303ZM15.226 51.3003C13.756 51.3003 12.326 51.3003 10.836 51.3003C10.836 44.8103 10.836 38.3403 10.836 31.7603C12.316 31.7603 13.746 31.7603 15.226 31.7603C15.226 38.2903 15.226 44.7703 15.226 51.3003ZM83.066 19.8403C83.366 19.8403 83.676 19.8303 83.966 19.8703C84.886 20.0103 85.496 20.7203 85.486 21.5803C85.476 22.4503 84.846 23.1503 83.916 23.2303C83.186 23.2903 82.446 23.2603 81.706 23.2603C79.426 23.2603 77.156 23.2603 74.876 23.2603C72.136 23.2603 69.386 23.2603 66.646 23.2603C66.276 23.2603 65.906 23.2603 65.546 23.1703C64.736 22.9603 64.296 22.3903 64.286 21.5703C64.276 20.7503 64.706 20.1603 65.506 19.9403C65.886 19.8303 66.296 19.8303 66.696 19.8303C72.156 19.8403 77.606 19.8403 83.066 19.8403ZM21.066 5.07033C21.056 4.15033 21.846 3.32033 22.756 3.30033C23.666 3.28033 24.466 4.07033 24.476 5.01033C24.496 6.02033 23.826 6.70033 22.806 6.71033C21.796 6.73033 21.076 6.05033 21.066 5.07033ZM48.986 84.7003C48.986 85.0003 48.956 85.2903 48.946 85.6503C38.586 85.6503 28.346 85.6503 17.966 85.6503C17.966 85.2403 17.966 84.8903 17.966 84.5303C17.966 62.4103 17.966 40.3003 17.976 18.1803C17.976 16.2903 18.486 15.7803 20.346 15.7803C29.126 15.7803 37.906 15.7803 46.676 15.7803C48.416 15.7803 48.986 16.3503 48.986 18.0503C48.986 40.2603 48.986 62.4803 48.986 84.7003ZM71.916 83.8703C71.916 84.4303 71.916 85.0003 71.916 85.6303C65.196 85.6303 58.556 85.6303 51.806 85.6303C51.806 85.2303 51.806 84.8703 51.806 84.5203C51.806 62.5103 51.756 40.5003 51.846 18.4803C51.866 14.7003 49.456 12.6603 46.306 12.9703C46.006 13.0003 45.706 12.9703 45.286 12.9703C45.286 11.5803 45.286 10.3203 45.286 8.99032C54.556 8.99032 63.776 8.99032 73.076 8.99032C73.076 11.6203 73.076 14.2403 73.076 16.9803C72.726 17.0003 72.376 17.0303 72.026 17.0303C70.086 17.0403 68.136 17.0103 66.196 17.0403C63.436 17.0803 61.456 19.0103 61.466 21.5903C61.476 24.1603 63.476 26.0503 66.246 26.0803C68.156 26.1003 70.066 26.0803 71.976 26.0803C72.336 26.0803 72.696 26.0803 73.156 26.0803C73.156 27.2303 73.156 28.2703 73.156 29.3003C73.156 32.1803 73.146 35.0603 73.156 37.9403C73.156 39.3403 73.636 39.8203 75.016 39.8303C76.686 39.8403 78.356 39.8303 80.096 39.8303C80.096 42.1903 80.096 44.4803 80.096 46.7103C79.086 47.0703 78.056 47.3103 77.166 47.7903C73.746 49.6303 71.946 52.5403 71.926 56.4203C71.886 65.5703 71.916 74.7203 71.916 83.8703ZM81.686 49.6603C85.426 49.7203 88.556 52.7903 88.356 56.2903C83.856 56.2903 79.346 56.2903 74.766 56.2903C74.716 52.6303 77.886 49.6103 81.686 49.6603ZM88.366 85.6403C83.846 85.6403 79.376 85.6403 74.816 85.6403C74.816 76.8603 74.816 68.0803 74.816 59.2003C79.346 59.2003 83.826 59.2003 88.366 59.2003C88.366 68.0203 88.366 76.8003 88.366 85.6403Z" fill="#3E3EF7"/>
<path d="M2.18605 89.0103C1.96605 89.0103 1.72605 89.0003 1.48605 88.9403C0.476051 88.6803 -0.0639487 87.9603 0.0060513 86.9603C0.0760513 85.9303 0.716051 85.3003 1.74605 85.2103C2.10605 85.1803 2.47605 85.1803 2.84605 85.1903H3.19605H14.7061V54.7203H11.2761C11.2761 55.0103 11.2761 55.3003 11.2761 55.5903C11.2361 57.5903 9.83605 59.0603 7.87605 59.1803C6.85605 59.2403 5.82605 59.2403 4.80605 59.1803C2.80605 59.0603 1.40605 57.5903 1.40605 55.6003C1.39605 45.8503 1.38605 36.1003 1.40605 26.3403C1.40605 24.3403 2.81605 22.8703 4.82605 22.7803C5.84605 22.7303 6.87605 22.7303 7.88605 22.7903C9.84605 22.8903 11.2361 24.3703 11.2761 26.3803C11.2861 26.9203 11.2861 27.4703 11.2761 28.0403V28.3703H11.7761C12.6761 28.3703 13.5261 28.3703 14.3761 28.3703C14.4661 28.3703 14.5561 28.3603 14.6561 28.3403V23.2403C14.6561 21.4603 14.6561 19.6803 14.6561 17.9003C14.6661 14.5503 16.7461 12.4703 20.0961 12.4603H20.8961C20.8961 12.3103 20.8961 12.1703 20.9061 12.0203C20.9161 11.2503 20.9261 10.5203 20.8661 9.81034C20.8161 9.74034 20.4361 9.50034 20.3061 9.42034C18.4661 8.26034 17.4661 6.16034 17.8361 4.21034C18.2361 2.07034 19.7261 0.530339 21.8361 0.100339C24.1761 -0.379661 26.5361 0.900339 27.4461 3.13034C28.4061 5.49034 27.5061 8.17034 25.3661 9.34034C24.7961 9.65034 24.6561 9.93034 24.7061 10.5903C24.7461 11.1103 24.7361 11.6203 24.7261 12.1703C24.7261 12.2403 24.7261 12.3103 24.7261 12.3803H41.946V11.4403C41.946 10.3203 41.946 9.22034 41.946 8.12034C41.956 6.25034 42.6061 5.58034 44.4561 5.58034C54.3361 5.58034 64.2261 5.57034 74.106 5.58034C75.776 5.58034 76.466 6.26034 76.466 7.94034C76.4761 10.0703 76.466 12.2103 76.466 14.3803V16.6203C76.776 16.6403 77.066 16.6503 77.3661 16.6503C78.0161 16.6503 78.666 16.6503 79.316 16.6403C80.816 16.6303 82.316 16.6203 83.816 16.6603C86.386 16.7203 88.456 18.5803 88.746 21.0903C89.036 23.6303 87.536 25.8503 85.106 26.5103C84.526 26.6703 83.916 26.6803 83.386 26.6903C81.596 26.7003 79.806 26.7003 77.996 26.7003H76.5161V36.6503H77.566C78.706 36.6503 79.8361 36.6503 80.966 36.6503C82.896 36.6603 83.4861 37.2403 83.4861 39.1403V40.4903C83.4861 42.3903 83.496 44.2903 83.4761 46.1903C83.4761 46.5403 83.4761 46.5503 83.826 46.6303C88.6161 47.7303 91.7261 51.6103 91.746 56.5203C91.766 63.1203 91.7661 69.7103 91.7561 76.3103V85.1803H98.3661C99.956 85.1803 100.776 85.8103 100.796 87.0303C100.806 87.5803 100.646 88.0203 100.316 88.3603C99.896 88.7803 99.246 88.9903 98.316 88.9903H13.7761L2.61605 89.0103H2.40605C2.33605 89.0103 2.26605 89.0103 2.18605 89.0103ZM2.47605 86.1903C2.25605 86.1903 2.04605 86.1903 1.82605 86.2103C1.29605 86.2503 1.04605 86.5003 1.00605 87.0403C0.986051 87.3803 1.04605 87.8003 1.73605 87.9803C1.92605 88.0203 2.14605 88.0103 2.38605 88.0103H2.61605H37.696H98.3061C98.9361 88.0103 99.3761 87.9003 99.5861 87.6803C99.716 87.5503 99.776 87.3503 99.776 87.0703C99.766 86.7003 99.7561 86.2003 98.346 86.2003H90.7361V76.3303C90.7361 69.7303 90.746 63.1403 90.7261 56.5403C90.716 52.1203 87.9061 48.6203 83.5861 47.6203C82.7761 47.4303 82.456 47.0203 82.466 46.1903C82.486 44.3003 82.4861 42.4003 82.4761 40.5103V39.1603C82.4761 37.8003 82.3461 37.6703 80.9461 37.6703C79.8161 37.6703 78.6961 37.6703 77.5561 37.6703H75.5061V25.7303H77.9861C79.7961 25.7303 81.5861 25.7303 83.3661 25.7203C83.8361 25.7203 84.3661 25.7003 84.826 25.5803C86.776 25.0503 87.9661 23.2703 87.7361 21.2403C87.5061 19.2003 85.876 17.7403 83.776 17.7003C82.286 17.6603 80.7961 17.6703 79.3061 17.6803C78.5561 17.6803 77.8061 17.6903 77.0561 17.6903C76.8061 17.6903 76.566 17.6703 76.2961 17.6603L75.4461 17.6103V14.4203C75.4461 12.2503 75.4461 10.1103 75.4461 7.98034C75.4461 6.84034 75.216 6.61034 74.0861 6.61034C64.1961 6.61034 54.3161 6.61034 44.4361 6.61034C43.126 6.61034 42.926 6.81034 42.926 8.15034C42.926 9.25034 42.926 10.3503 42.926 11.4603V13.4003H23.7061V12.9003C23.7061 12.6503 23.7061 12.4103 23.7161 12.1703C23.7261 11.6503 23.7361 11.1703 23.6961 10.6903C23.6161 9.64034 23.9661 8.98034 24.8761 8.48034C26.5761 7.55034 27.2861 5.41034 26.5161 3.52034C25.7861 1.73034 23.9061 0.700339 22.0361 1.09034C20.3161 1.44034 19.1361 2.65034 18.8161 4.40034C18.5261 5.96034 19.3361 7.64034 20.8361 8.59034C21.3461 8.91034 21.8061 9.24034 21.8561 9.73034C21.9261 10.4903 21.9161 11.2503 21.9061 12.0503C21.9061 12.3503 21.8961 12.6603 21.8961 12.9703V13.4703H20.1061C17.2861 13.4803 15.6761 15.1003 15.6661 17.9103C15.6661 19.6903 15.6661 21.4703 15.6661 23.2503V29.2203L14.9461 29.3203C14.7361 29.3503 14.5661 29.3803 14.3961 29.3803C13.5461 29.3903 12.6861 29.3803 11.7861 29.3803H10.2861V28.0403C10.2861 27.4703 10.2861 26.9403 10.2861 26.4003C10.2561 24.9203 9.27605 23.8703 7.84605 23.7903C6.86605 23.7403 5.86605 23.7403 4.88605 23.7803C3.41605 23.8503 2.42605 24.8803 2.41605 26.3503C2.40605 36.1003 2.40605 45.8503 2.41605 55.6003C2.41605 57.0803 3.38605 58.0903 4.87605 58.1803C5.85605 58.2303 6.84605 58.2303 7.83605 58.1803C9.27605 58.0903 10.2561 57.0403 10.2961 55.5703C10.3061 55.2603 10.2961 54.9603 10.2961 54.6503V53.7203H15.7361V86.1903H2.83605C2.71605 86.1903 2.59605 86.1903 2.47605 86.1903ZM49.416 86.1503H17.4661V18.1803C17.4661 16.0103 18.1861 15.2803 20.3361 15.2803C29.1161 15.2803 37.896 15.2803 46.666 15.2803C48.666 15.2803 49.4761 16.0803 49.4761 18.0503V84.7003C49.4761 84.9103 49.466 85.1103 49.4561 85.3403L49.416 86.1503ZM18.4661 85.1503H48.466C48.476 84.9903 48.486 84.8503 48.486 84.7003V18.0503C48.486 16.6303 48.126 16.2803 46.676 16.2803C37.906 16.2803 29.1161 16.2803 20.3461 16.2803C18.7561 16.2803 18.4761 16.5603 18.4761 18.1803L18.4661 85.1503ZM88.8661 86.1403H74.3061V58.7103H88.856V86.1403H88.8661ZM75.3061 85.1403H87.856V59.7103H75.3061V85.1403ZM72.4161 86.1303H51.306L51.2961 67.8303C51.2861 51.6603 51.2761 34.9303 51.3461 18.4803C51.356 16.7703 50.836 15.3903 49.856 14.5003C48.966 13.6903 47.7561 13.3303 46.356 13.4703C46.146 13.4903 45.926 13.4903 45.676 13.4803H44.7961V8.49034H73.5861V17.4603L72.786 17.5003C72.2961 17.5303 71.8061 17.5303 71.3061 17.5303C70.8361 17.5303 70.3661 17.5303 69.896 17.5303C68.666 17.5203 67.4361 17.5203 66.206 17.5403C63.736 17.5803 61.9561 19.2803 61.966 21.5903C61.976 23.8803 63.7761 25.5603 66.2561 25.5803C67.566 25.5903 68.8661 25.5903 70.176 25.5803H73.6561V31.7403C73.6561 33.8103 73.6561 35.8803 73.6561 37.9403C73.6561 39.0603 73.916 39.3203 75.026 39.3303C76.1861 39.3403 77.356 39.3403 78.5461 39.3303H80.6161V47.0603L80.286 47.1803C79.956 47.3003 79.6361 47.4003 79.3061 47.5103C78.6261 47.7203 77.996 47.9303 77.426 48.2303C74.136 50.0003 72.466 52.7503 72.4461 56.4203C72.396 62.9603 72.4061 69.4803 72.4061 76.0103L72.4161 86.1303ZM52.306 85.1303H71.4161L71.4061 76.0103C71.396 69.4803 71.396 62.9503 71.426 56.4303C71.446 52.4203 73.346 49.2903 76.926 47.3603C77.576 47.0103 78.2961 46.7803 78.9861 46.5603C79.1861 46.5003 79.396 46.4303 79.596 46.3603V40.3403H78.536C77.346 40.3403 76.1761 40.3403 75.0161 40.3403C73.3461 40.3303 72.6661 39.6403 72.6561 37.9503C72.646 35.8803 72.6561 33.8103 72.6561 31.7403V26.5803H70.176C68.8661 26.5803 67.556 26.5903 66.246 26.5803C63.206 26.5503 60.986 24.4503 60.966 21.5903C60.9561 18.7103 63.146 16.5903 66.1861 16.5403C67.426 16.5203 68.6561 16.5203 69.896 16.5303C70.606 16.5303 71.316 16.5303 72.026 16.5303C72.216 16.5303 72.396 16.5203 72.576 16.5103V9.49034H45.786V12.4803C45.956 12.4803 46.106 12.4803 46.2561 12.4703C47.926 12.3103 49.4361 12.7703 50.5261 13.7603C51.716 14.8503 52.3461 16.4803 52.3361 18.4803C52.2661 34.9303 52.2761 51.6503 52.286 67.8303L52.306 85.1303ZM88.8361 56.8003H74.276L74.2661 56.3103C74.2361 54.4603 74.9661 52.7003 76.3061 51.3503C77.7161 49.9403 79.6961 49.1303 81.6861 49.1703C83.716 49.2003 85.6661 50.0703 87.0461 51.5503C88.3061 52.9003 88.946 54.6003 88.846 56.3303L88.8361 56.8003ZM75.286 55.8003H87.8761C87.826 54.5103 87.2961 53.2603 86.3361 52.2303C85.1361 50.9503 83.4461 50.1903 81.6861 50.1703C79.956 50.1303 78.246 50.8303 77.026 52.0503C75.986 53.0803 75.386 54.4003 75.286 55.8003ZM8.40605 56.3303H4.28605V25.6303H8.40605V56.3303ZM5.28605 55.3303H7.40605V26.6303H5.28605V55.3303ZM15.7261 51.7903H10.3361V31.2603H15.7261V51.7903ZM11.3461 50.7903H14.7361V32.2603H11.3461V50.7903ZM82.816 23.7803C82.636 23.7803 82.456 23.7803 82.276 23.7803H81.706H72.9761C70.8661 23.7803 68.7561 23.7803 66.646 23.7803C66.2561 23.7803 65.8361 23.7803 65.426 23.6703C64.396 23.4103 63.806 22.6503 63.786 21.5903C63.7761 20.5403 64.3661 19.7503 65.3761 19.4703C65.8161 19.3503 66.286 19.3503 66.6961 19.3403C72.146 19.3303 77.6061 19.3403 83.0561 19.3403H83.1961C83.466 19.3403 83.746 19.3403 84.036 19.3803C85.1961 19.5603 85.996 20.4703 85.9761 21.6003C85.9561 22.7403 85.1061 23.6403 83.9461 23.7403C83.576 23.7803 83.196 23.7803 82.816 23.7803ZM81.706 22.7803H82.286C82.8361 22.7903 83.3561 22.7903 83.8761 22.7503C84.5161 22.7003 84.9761 22.2203 84.9861 21.5903C84.9961 20.9703 84.5561 20.4803 83.896 20.3803C83.676 20.3403 83.4461 20.3503 83.216 20.3503H83.066C77.6161 20.3503 72.156 20.3503 66.706 20.3503C66.336 20.3503 65.956 20.3503 65.646 20.4403C65.066 20.6003 64.786 20.9903 64.7961 21.5903C64.8061 22.1903 65.106 22.5603 65.6861 22.7103C65.966 22.7803 66.2961 22.7803 66.636 22.7803C68.766 22.7803 70.8761 22.7803 72.9861 22.7803H81.706ZM22.7861 7.22034C21.5061 7.22034 20.5761 6.32034 20.5561 5.08034C20.5461 3.87034 21.5461 2.83034 22.7361 2.81034C23.3061 2.81034 23.8561 3.01034 24.2761 3.42034C24.7061 3.84034 24.9661 4.42034 24.9761 5.01034C24.9861 5.64034 24.7861 6.19034 24.3961 6.59034C24.0061 7.00034 23.4561 7.21034 22.8161 7.22034C22.8061 7.22034 22.7961 7.22034 22.7861 7.22034ZM21.5661 5.07034C21.5761 5.77034 22.0661 6.23034 22.8061 6.23034C23.1761 6.23034 23.4761 6.11034 23.6761 5.90034C23.8761 5.69034 23.9861 5.39034 23.9761 5.03034C23.9661 4.70034 23.8261 4.38034 23.5861 4.15034C23.3561 3.93034 23.0661 3.81034 22.7661 3.81034C22.1261 3.82034 21.5561 4.42034 21.5661 5.07034Z" fill="#3E3EF7"/>
<path d="M34.7461 24.0503C34.1461 23.0503 32.7961 23.1003 32.286 24.1303C30.786 27.1803 29.1561 30.2003 27.9761 33.3803C26.5961 37.0803 29.5461 40.8903 33.5061 40.9003C37.3061 40.9203 40.2161 37.4403 39.2961 33.8303C38.4061 30.2903 36.6061 27.1403 34.7461 24.0503ZM35.3161 37.5403C34.2461 38.2803 32.8061 38.2703 31.7361 37.5203C30.6161 36.7203 30.1161 35.3903 30.6361 34.0603C31.4761 31.9303 32.4361 29.8603 33.3461 27.7603C33.4761 27.7703 33.6161 27.7803 33.7461 27.7903C34.6561 29.8903 35.6361 31.9703 36.4661 34.1103C36.986 35.4103 36.4361 36.7603 35.3161 37.5403Z" fill="#3E3EF7"/>
<path d="M33.5361 41.3903C33.5261 41.3903 33.5161 41.3903 33.5061 41.3903C31.3761 41.3803 29.3961 40.3503 28.2061 38.6203C27.0861 37.0003 26.8261 35.0203 27.5061 33.1903C28.4461 30.6603 29.6761 28.2103 30.8761 25.8303C31.1961 25.1903 31.5261 24.5403 31.8361 23.9003C32.1561 23.2503 32.7561 22.8503 33.4461 22.8203C34.1361 22.8003 34.7861 23.1503 35.1761 23.7803C37.0861 26.9503 38.8761 30.0803 39.7861 33.6903C40.2461 35.5003 39.8361 37.4003 38.6661 38.9003C37.4261 40.4903 35.5561 41.3903 33.5361 41.3903ZM33.5261 23.8203C33.5161 23.8203 33.5061 23.8203 33.4861 23.8203C33.1661 23.8303 32.8861 24.0203 32.7361 24.3403C32.4161 24.9903 32.0961 25.6303 31.7661 26.2803C30.5861 28.6303 29.3661 31.0603 28.4461 33.5403C27.8861 35.0603 28.0961 36.7003 29.0261 38.0503C30.0361 39.5103 31.7061 40.3803 33.5061 40.3903C33.5161 40.3903 33.5261 40.3903 33.5361 40.3903C35.2461 40.3903 36.8261 39.6203 37.8761 38.2903C38.8561 37.0403 39.1961 35.4503 38.8161 33.9503C37.9361 30.4703 36.1861 27.4103 34.3161 24.3103C34.1361 24.0003 33.8361 23.8203 33.5261 23.8203ZM33.5461 38.5903C32.8061 38.5903 32.0761 38.3703 31.4461 37.9203C30.0861 36.9503 29.5861 35.3603 30.1661 33.8703C30.7661 32.3603 31.4261 30.8503 32.0761 29.3903C32.3461 28.7803 32.6161 28.1603 32.8861 27.5503L33.0261 27.2303L34.0861 27.3003L34.2061 27.5803C34.4761 28.2003 34.7561 28.8203 35.0261 29.4403C35.6761 30.9003 36.3461 32.4003 36.9361 33.9203C37.4961 35.3803 36.9561 37.0003 35.5961 37.9503C34.9861 38.3803 34.2661 38.5903 33.5461 38.5903ZM33.5461 28.5503C33.3661 28.9703 33.1761 29.3803 32.9961 29.8003C32.3561 31.2503 31.6861 32.7503 31.1061 34.2403C30.6861 35.3003 31.0461 36.4003 32.0361 37.1103C32.9361 37.7503 34.1361 37.7603 35.0361 37.1303C36.0361 36.4303 36.4161 35.3203 36.0161 34.2803C35.4361 32.7903 34.7761 31.2903 34.1261 29.8503C33.9361 29.4203 33.7361 28.9903 33.5461 28.5503Z" fill="#3E3EF7"/>
</svg>
