<svg width="75" height="89" viewBox="0 0 75 89" fill="none" xmlns="http://www.w3.org/2000/svg">
<path d="M51.0491 64.4112C51.0491 71.9205 44.9181 78.0112 37.359 78.0112C29.7999 78.0112 23.6689 71.9205 23.6689 64.4112C23.6689 56.1871 37.359 39.1951 37.359 39.1951C37.359 39.1951 51.0491 56.7951 51.0491 64.4112Z" stroke="#3C48EE" stroke-width="4" stroke-miterlimit="10"/>
<path d="M30.8418 66.8433C31.8833 69.3926 34.4066 71.1953 37.3486 71.1953C40.3121 71.1953 42.8568 69.3713 43.8769 66.7793" stroke="#3C48EE" stroke-width="4" stroke-miterlimit="10"/>
<path d="M15.8202 22.512H58.8875C63.0321 22.512 66.5217 25.5733 67.0478 29.6587L72.6742 81.894C72.9855 84.3154 71.085 86.4487 68.6262 86.4487H6.08144C3.6226 86.4487 1.7221 84.3047 2.03348 81.894L7.65982 29.6587C8.17521 25.5733 11.6756 22.512 15.8202 22.512Z" stroke="#3C48EE" stroke-width="4" stroke-miterlimit="10"/>
<path d="M54.6571 37.6058V19.1949C54.6571 9.73343 46.8726 2 37.3486 2C27.8353 2 20.04 9.73343 20.04 19.1949V37.6165" stroke="#3C48EE" stroke-width="4" stroke-miterlimit="10"/>
</svg>
