<svg width="81" height="90" viewBox="0 0 81 90" fill="none" xmlns="http://www.w3.org/2000/svg">
<path d="M48.0423 69.0603C48.0423 73.0959 44.7783 76.3699 40.7549 76.3699C36.7316 76.3699 33.4675 73.0959 33.4675 69.0603C33.4675 64.6382 40.7549 55.5097 40.7549 55.5097C40.7549 55.5097 48.0423 64.9678 48.0423 69.0603Z" stroke="#3C48EE" stroke-width="4" stroke-miterlimit="10"/>
<path d="M0 84.5206C4.0347 84.5206 4.0347 87.7264 8.0694 87.7264C12.1041 87.7264 12.1041 84.5206 16.1388 84.5206C20.1735 84.5206 20.1735 87.7264 24.2082 87.7264C28.2429 87.7264 28.2429 84.5206 32.2776 84.5206C36.3123 84.5206 36.3123 87.7264 40.3357 87.7264C44.3704 87.7264 44.3704 84.5206 48.4051 84.5206C52.4398 84.5206 52.4398 87.7264 56.4858 87.7264C60.5205 87.7264 60.5205 84.5206 64.5665 84.5206" stroke="#3C48EE" stroke-width="4" stroke-miterlimit="10"/>
<path d="M0 69.7423C4.0347 69.7423 4.0347 72.9481 8.0694 72.9481C12.1041 72.9481 12.1041 69.7423 16.1388 69.7423C20.1735 69.7423 20.1735 72.9481 24.2082 72.9481" stroke="#3C48EE" stroke-width="4" stroke-miterlimit="10"/>
<path d="M81 86.7942C79.776 86.7942 79.2773 87.1921 78.3707 87.9083C77.26 88.795 75.73 90 72.9306 90C70.1199 90 68.6012 88.7836 67.4906 87.9083C66.5952 87.1921 66.0965 86.7942 64.8612 86.7942C63.6372 86.7942 63.1385 87.1921 62.2319 87.9083C61.1212 88.795 59.5912 90 56.7918 90C53.9925 90 52.4624 88.7836 51.3518 87.9083C50.4564 87.1921 49.9578 86.7942 48.7224 86.7942V82.2471C51.5331 82.2471 53.0518 83.4634 54.1625 84.3388C55.0578 85.055 55.5565 85.4528 56.7918 85.4528C58.0158 85.4528 58.5145 85.055 59.4212 84.3388C60.5318 83.4521 62.0505 82.2471 64.8612 82.2471C67.6719 82.2471 69.1906 83.4634 70.3013 84.3388C71.1966 85.055 71.6953 85.4528 72.9306 85.4528C74.1546 85.4528 74.6533 85.055 75.56 84.3388C76.6706 83.4521 78.2006 82.2471 81 82.2471" fill="#3C48EE"/>
<path d="M79.8666 67.4688V72.0159C78.6312 72.0159 78.1439 72.4138 77.2372 73.13C76.1265 74.0053 74.6078 75.2217 71.7972 75.2217C68.9865 75.2217 67.4678 74.0053 66.3571 73.13C65.4504 72.4138 64.9631 72.0159 63.7278 72.0159C62.5037 72.0159 62.0051 72.4024 61.1097 73.13C59.9991 74.0053 58.469 75.2217 55.6697 75.2217H55.5337V70.6631C55.579 70.6745 55.6244 70.6745 55.6697 70.6745C56.8937 70.6745 57.3924 70.2766 58.2877 69.5605C59.3984 68.6738 60.9284 67.4688 63.7278 67.4688C66.5384 67.4688 68.0571 68.6738 69.1678 69.5605C70.0745 70.2766 70.5731 70.6745 71.7972 70.6745C73.0212 70.6745 73.5198 70.2766 74.4265 69.5605C75.5372 68.6738 77.0559 67.4688 79.8666 67.4688Z" fill="#3C48EE"/>
<path d="M31.1555 42.0614C36.7826 42.0614 41.3443 33.1546 41.3443 22.1675C41.3443 11.1804 36.7826 2.27362 31.1555 2.27362C25.5285 2.27362 20.9668 11.1804 20.9668 22.1675C20.9668 33.1546 25.5285 42.0614 31.1555 42.0614Z" stroke="#3C48EE" stroke-width="4" stroke-miterlimit="10"/>
<path d="M0 2.27362H40.8683" stroke="#3C48EE" stroke-width="3.9193" stroke-miterlimit="10"/>
<path d="M0 42.0614H39.7803" stroke="#3C48EE" stroke-width="3.9193" stroke-miterlimit="10"/>
<path d="M40.2224 42.0614C45.8495 42.0614 50.4112 33.1546 50.4112 22.1675C50.4112 11.1804 45.8495 2.27362 40.2224 2.27362C34.5954 2.27362 30.0337 11.1804 30.0337 22.1675C30.0337 33.1546 34.5954 42.0614 40.2224 42.0614Z" stroke="#3C48EE" stroke-width="4" stroke-miterlimit="10"/>
</svg>
