<svg width="17" height="17" viewBox="0 0 17 17" fill="none" xmlns="http://www.w3.org/2000/svg">
<path d="M8.50547 -0.000233104C13.1912 0.00788443 16.9977 3.81501 16.9995 8.49758C17.0014 13.1876 13.1587 17.0216 8.47737 16.9998C3.78793 16.9779 -0.0117031 13.162 -0.000463409 8.48509C0.0107763 3.80127 3.82914 -0.00772622 8.50547 -0.000233104ZM8.06025 9.63778C7.00185 8.75797 5.96718 7.89688 4.92189 7.02706C4.48791 7.5497 4.08016 8.04113 3.66117 8.54566C5.2316 9.85446 6.77144 11.1389 8.32813 12.4365C10.2401 10.0855 12.1346 7.75701 14.041 5.41354C13.5221 4.99268 13.0244 4.58867 12.5068 4.16844C11.0182 5.99925 9.54451 7.81196 8.06025 9.63778Z" fill="black"/>
</svg>
